<?xml version="1.0" encoding="UTF-8"?>
<svg fill="#FFFFFF" width="100pt" height="100pt" version="1.1" viewBox="0 0 100 100" xmlns="http://www.w3.org/2000/svg">
 <path d="m13.008 6c-0.73437-0.007812-1.4414 0.41406-1.7812 1.0625-0.33984 0.64844-0.30078 1.4961 0.125 2.0938l36.656 52.094v28.75h-14.938c-1.0469 0-2 0.95312-2 2s0.95313 2.0039 2 2h16.938 0.1875 16.719c1.0469 0 2-0.95312 2-2s-0.95312-2.0039-2-2h-14.906v-28.75c12.188-17.387 24.41-34.742 36.625-52.094 0.42188-0.59375 0.48828-1.4141 0.15625-2.0625-0.33203-0.64844-1.0547-1.0898-1.7812-1.0938zm28.125 18.562c3.2891 0 6 2.7109 6 6s-2.7109 6-6 6c-3.2891 0-6-2.7109-6-6s2.7109-6 6-6zm17.906 0c3.2891 0 6 2.7109 6 6s-2.7109 6-6 6c-3.2891 0-6-2.7109-6-6s2.7109-6 6-6zm-9.2188 12.156c3.2891 0 6 2.7109 6 6 0 3.2852-2.7031 6-6 6-3.2969 0-6-2.7148-6-6 0-3.2891 2.7109-6 6-6z" fill-rule="evenodd"/>
</svg>
